<?xml version="1.0" encoding="UTF-8"?> <svg xmlns="http://www.w3.org/2000/svg" viewBox="0 0 135.00 170.87" data-guides="{&quot;vertical&quot;:[],&quot;horizontal&quot;:[]}"><defs></defs><path fill="#bbafd1" stroke="none" fill-opacity="1" stroke-width="1" stroke-opacity="1" fill-rule="evenodd" id="tSvg9d8837d03d" title="Path 1" d="M32.2942 2.1774C32.2637 2.8203 32.5476 2.7644 34.5831 1.7263C36.1187 0.9432 36.8372 0.7279 36.7022 1.0907C36.5899 1.3927 36.5868 1.6765 36.6955 1.7215C36.8042 1.7664 38.504 1.4669 40.4737 1.0559C44.9759 0.1162 50.5031 -0.2456 54.1738 0.1583C57.9765 0.5771 57.1115 1.1889 53.0842 0.9288C51.3236 0.8152 49.0344 0.8062 47.9965 0.9086C45.6178 1.144 39.0972 2.6624 39.0536 2.9917C39.0071 3.3435 39.4103 3.3142 44.5289 2.5949C47.051 2.2405 49.6085 2.0092 50.2118 2.0811C50.5773 2.1246 50.9428 2.1682 51.3083 2.2117C51.0135 2.281 50.7186 2.3503 50.4238 2.4196C49.9373 2.5341 47.8577 2.9724 45.8027 3.393C43.7471 3.813 40.6802 4.5004 38.9873 4.9201C36.1845 5.6147 32.4191 5.6427 31.8019 4.9736C31.5164 4.6646 24.5203 8.2728 23.5314 9.2394C22.9851 9.7726 23.2466 9.7888 25.0661 9.3327C26.2724 9.0308 28.3693 8.3441 29.7257 7.8073C31.0829 7.2705 32.382 6.9048 32.6127 6.9945C32.8431 7.0839 33.6209 7.0009 34.3406 6.8094C38.5433 5.6911 39.313 6.6615 35.276 7.9888C31.4158 9.2579 24.9181 13.6464 24.8671 15.0193C24.8538 15.3746 23.539 17.0362 21.9453 18.7112C17.2587 23.638 9.9381 36.1672 10.1065 38.9724C10.1258 39.2934 9.9831 39.6372 9.7895 39.7365C9.3906 39.9411 8.078 44.6962 7.1931 49.1397C6.0102 55.0829 5.9399 62.2396 6.982 70.6933C7.2794 73.1067 7.4389 73.6262 8.0326 74.1152C8.6448 74.6185 8.7127 75.018 8.5754 77.304C8.4096 80.0651 8.9674 82.4508 9.8315 82.6758C10.2232 82.7778 11.2367 85.2976 14.7466 94.9C18.5568 105.3217 19.1058 107.0287 18.7124 107.2329C18.4613 107.3631 18.1864 107.3346 18.1019 107.17C17.9002 106.7769 13.3151 95.3541 12.7859 93.9268C11.9654 91.7143 11.9034 93.1584 12.6917 96.1232C13.4381 98.932 13.8557 99.8601 18.0571 108.0488C22.8987 117.4868 25.5735 121.7776 28.3136 124.5052C29.009 125.1983 31.6402 128.0217 34.16 130.7805C36.6796 133.5395 39.0385 135.9803 39.4031 136.2046C39.7676 136.4297 41.9961 138.3911 44.3551 140.5635C47.6423 143.5911 49.1099 144.715 50.6403 145.3792C51.7386 145.8558 53.6545 146.9386 54.8977 147.7853C57.985 149.8883 64.4302 153.2218 68.7286 154.9384C70.686 155.7205 73.4441 156.8215 74.8582 157.3852C77.5889 158.4734 78.1138 158.9768 76.2179 158.6893C74.497 158.4283 74.371 158.7055 75.8366 159.5279C77.4697 160.4441 79.1755 160.5317 78.7371 159.6773C78.5464 159.3054 78.6407 159.0942 79.0064 159.0751C79.3159 159.059 83.6217 158.8312 88.5753 158.5689C91.5767 158.4099 94.5788 158.2509 97.5809 158.0918C99.3228 157.2729 101.064 156.4539 102.8058 155.6349C108.7059 152.8609 111.7526 150.7557 113.9939 147.9044C114.8186 146.8555 115.8514 145.6808 116.2889 145.294C117.5226 144.2032 116.6718 145.4499 114.3083 148.1952C113.1696 149.5179 112.1993 150.8148 112.1524 151.0771C112.1009 151.3635 113.2671 150.8026 115.0677 149.6753C117.7625 147.9879 118.2045 147.5556 119.4122 145.4261C120.1513 144.1228 120.6917 142.9297 120.6122 142.7747C120.5329 142.6202 120.1729 142.527 119.812 142.5681C118.4358 142.7235 119.261 141.2133 122.7491 137.1922C123.5449 136.2747 124.0583 135.1124 124.3539 133.5584C124.5926 132.3013 125.1782 130.2938 125.6543 129.0971C126.9898 125.7405 128.1222 120.5688 129.2594 112.6329C129.8305 108.6452 130.3831 105.428 130.4875 105.4837C130.5917 105.5396 130.7826 107.163 130.9116 109.0917C131.0402 111.0199 131.2485 112.6525 131.3742 112.7199C131.933 113.0188 131.8827 105.5611 131.2745 97.8858C130.7638 91.4436 130.2231 89.2434 128.5883 86.9565C127.5679 85.5287 127.4093 85.1224 127.2874 83.6225C127.1519 81.9594 124.35 73.504 123.1262 71.0669C122.5721 69.9638 121.693 69.2004 121.2425 69.4315C121.1275 69.4906 121.2959 70.051 121.6171 70.6767C122.5234 72.4434 124.4904 78.5879 125.4917 82.7801C126.7564 88.0791 128.4519 99.4098 128.6251 103.7235C129.0624 114.6229 126.6976 126.019 122.3942 133.7543C120.8013 136.6157 115.0652 144.8376 114.7708 144.6808C114.322 144.4406 115.1016 142.4935 116.7668 139.695C119.1418 135.7025 119.8787 133.951 120.3184 131.2547C120.7641 128.5212 121.3988 126.9567 122.7933 125.1534C123.718 123.9571 123.959 123.0329 124.4235 118.904C124.7236 116.2396 125.1337 111.2894 125.3354 107.9049C125.5371 104.5194 125.8618 100.8083 126.0563 99.6589C126.5257 96.8927 125.8219 91.4912 124.7862 89.9159C124.2492 89.0992 123.8478 87.7738 123.4027 85.3479C122.4993 80.4256 120.7261 74.2905 118.7229 69.1598C116.2952 62.939 111.234 53.6324 107.1108 47.8033C102.9462 41.9178 101.9631 40.7854 99.134 38.616C96.7039 36.7525 94.8756 34.8009 93.178 32.2586C92.128 30.6855 86.3684 26.8857 75.8393 20.8189C73.8682 19.6829 71.7605 18.3266 71.1552 17.8052C69.6171 16.48 64.9683 15.1392 63.6684 15.646C63.0579 15.8838 61.3035 15.7737 59.3522 15.3751C50.3387 13.5333 43.226 14.4746 35.2509 18.5654C31.5389 20.4688 25.8109 24.5451 24.4911 26.2218C24.2593 26.5165 23.8966 26.3999 23.362 25.8593C22.8845 25.3762 22.6759 25.0112 22.8311 24.9315C22.9719 24.8591 23.1743 24.9703 23.281 25.1781C23.6158 25.831 25.4513 24.5874 27.7395 22.157C30.5607 19.16 35.7297 16.0155 40.306 14.512C46.5117 12.4735 54.8215 12.0572 63.2978 13.3591C76.5825 15.4009 89.6249 23.7476 101.9004 38.0662C106.4331 43.3522 107.0614 44.03 106.9246 43.4883C106.8608 43.2356 105.5091 41.3988 103.921 39.4063C101.1512 35.932 100.0432 34.1505 102.0572 36.41C102.9945 37.4615 103.0129 37.464 102.7241 36.4928C102.4748 35.6551 103.0468 36.1081 106.282 39.3098C108.6183 41.6232 110.5528 43.8094 111.1945 44.8617C111.5474 45.4403 111.9003 46.0189 112.2532 46.5974C111.721 46.0275 111.1888 45.4575 110.6565 44.8875C109.6741 43.8348 109.0363 43.3602 108.9974 43.6531C108.9354 44.1232 112.9014 50.6632 116.4304 55.9105C116.9872 56.7379 117.5434 57.5661 118.1003 58.3942C117.7716 57.6081 117.4429 56.8221 117.1143 56.0368C116.5723 54.7397 115.6272 52.6468 115.0145 51.3859C114.0471 49.3955 114.0031 49.21 114.6805 49.979C115.1492 50.5113 115.5598 50.7162 115.7101 50.4925C115.8473 50.2874 116.1038 50.2389 116.2792 50.3846C116.4553 50.5306 118.7613 54.8199 121.4053 59.9156C126.1859 69.1306 126.214 69.1941 126.5909 71.5664C126.7993 72.8783 127.3633 74.9172 127.8442 76.0984C128.3246 77.2791 128.7057 78.5739 128.6911 78.9753C128.6615 79.7681 129.1509 82.2475 130.0599 85.9101C130.5877 88.0368 130.6416 88.1489 130.678 87.2013C130.7002 86.6299 130.7067 85.7675 130.6923 85.2846C130.6366 83.3887 131.5247 86.8476 132.331 91.6669C134.4198 104.1518 134.2844 102.8637 134.2348 109.7825C134.2197 111.8906 134.2444 114.2204 134.2896 114.96C134.363 116.1707 134.4028 116.2576 134.6873 115.8333C134.9566 115.4304 135.0038 115.5508 135.0141 116.6655C135.0305 118.4517 134.191 123.8621 133.5455 126.1261C133.1737 127.4292 133.1962 126.5111 133.6203 123.0646C133.9533 120.3561 134.1431 118.1833 134.0418 118.2347C133.9403 118.2866 133.565 119.822 133.2072 121.6464C131.9807 127.9009 131.5049 129.5585 130.5863 130.7718C130.0805 131.4397 129.4772 132.9585 129.2461 134.1462C128.955 135.6409 127.7357 138.24 125.288 142.5874C123.3418 146.0417 121.4841 149.1444 121.1589 149.4811C120.8339 149.8182 120.5053 150.6962 120.4287 151.4324C120.3009 152.6614 119.893 153.105 115.4462 156.8529C110.7006 160.8529 109.361 162.2636 110.8346 161.7106C113.3347 160.7718 106.5001 164.5698 102.9651 166.0836C96.0826 169.0311 92.3212 169.4576 82.7949 168.3714C79.9553 168.0475 77.2138 167.8528 76.7035 167.9388C76.1056 168.0394 75.435 167.7753 74.8175 167.1965C74.2594 166.6734 73.1326 166.1827 72.1206 166.0214C71.1637 165.8689 69.8292 165.5071 69.1551 165.2175C68.4809 164.9276 67.1196 164.5619 66.1304 164.4049C65.0725 164.2369 62.7194 163.2294 60.4161 161.9597C58.262 160.7716 55.0551 159.0116 53.2891 158.0487C44.8676 153.4574 43.0888 152.1851 36.912 146.3312C33.4076 143.011 30.81 140.316 30.4597 139.6375C29.3256 137.4406 28.0794 135.7831 27.8352 136.1462C27.6647 136.4007 26.981 135.5073 25.3462 132.8918C24.1064 130.9081 23.1053 129.1852 23.1215 129.0632C23.1374 128.941 24.5495 130.5986 26.2589 132.7462C27.9679 134.8939 29.5105 136.6884 29.687 136.7345C30.1892 136.8652 29.7773 136.2471 27.2369 133.0598C20.0916 124.0964 13.0411 112.4322 8.4638 102.0014C7.2902 99.3282 6.172 97.0557 5.9784 96.9522C5.7849 96.8486 4.7265 93.8428 3.6258 90.2734C2.5251 86.7027 1.8138 84.0499 2.0438 84.3779C2.2743 84.706 3.2253 87.5111 4.1589 90.6119C5.5161 95.1205 5.976 96.3267 6.4577 96.6391C7.3252 97.2017 7.197 96.242 6.1221 94.1235C5.0731 92.0563 4.591 90.5376 5.0195 90.6492C5.3877 90.7453 2.4795 79.2951 1.7991 77.9677C1.5143 77.4125 1.4747 76.6313 1.695 75.9126C1.9097 75.2105 1.8453 73.7711 1.5316 72.2651C1.2466 70.8962 0.997 69.2278 0.9775 68.5581C0.9578 67.8881 0.7026 66.2732 0.41 64.9698C0.0894 63.54 -0.0392 61.1595 0.0864 58.9732C0.2008 56.9789 0.3525 53.1702 0.4234 50.5084C0.6854 40.6929 1.1235 37.8236 3.3453 31.3719C4.9541 26.7016 5.708 25.0579 6.7748 23.8947C7.5266 23.0751 8.1641 22.1552 8.1914 21.851C8.2266 21.4554 8.1308 21.4501 7.8546 21.8328C7.5994 22.1867 7.4921 22.1959 7.5382 21.8601C7.6173 21.2858 11.9121 16.5356 12.2088 16.6947C12.3147 16.7511 11.5419 18.2498 10.4918 20.0243C8.6901 23.0679 8.1097 24.3709 8.6891 24.0712C8.8253 24.0005 9.6665 22.7241 10.5582 21.2351C15.0378 13.7506 22.73 6.3676 29.8575 2.7114C32.0249 1.5995 32.325 1.5339 32.2942 2.1774ZM19.0724 13.4379C18.987 14.1543 11.4324 24.6858 11.1234 24.52C10.7376 24.3136 13.9205 18.7657 15.7065 16.5314C17.6946 14.0445 19.1609 12.697 19.0724 13.4379ZM25.9297 10.3781C25.8156 10.6868 23.3463 13.2632 20.4427 16.1043C17.5397 18.9454 15.0536 21.4168 14.9193 21.5974C14.7847 21.7782 14.5927 21.7659 14.4927 21.5709C14.2527 21.1038 17.6909 16.8457 20.3509 14.3154C22.8594 11.9313 26.2374 9.5467 25.9297 10.3781ZM40.1368 7.4829C40.8621 7.3314 40.4174 7.6025 39.0044 8.1736C37.725 8.6902 36.5971 9.0753 36.4979 9.0289C36.1915 8.8858 38.8726 7.7467 40.1368 7.4829ZM59.2405 0.9306C59.9231 0.9065 64.7628 2.3577 64.9012 2.6275C64.9456 2.714 64.3446 2.8253 63.5659 2.8751C62.064 2.9712 60.4763 2.5503 58.9863 1.6616C58.0569 1.1073 58.1047 0.9701 59.2405 0.9306ZM37.7011 12.0944C40.1649 11.2343 45.7667 10.1148 46.6736 10.3013C47.0945 10.3876 47.1356 10.5325 46.8895 11.0579C46.6709 11.5238 46.1 11.7607 44.8715 11.895C42.9329 12.1066 32.5296 17.084 28.9609 19.5072C27.4516 20.5325 27.0561 20.7005 27.5241 20.1181C27.8788 19.676 28.1548 19.1101 28.1375 18.8607C28.12 18.6114 28.0706 18.4281 28.0275 18.4536C27.9846 18.4794 26.827 19.5001 25.4549 20.722C24.0828 21.9431 22.7794 23.0253 22.5584 23.1257C21.5753 23.5717 26.1278 18.3192 27.7467 17.1393C29.9804 15.5109 34.5562 13.1915 37.7011 12.0944ZM38.0283 12.7103C38.5759 12.5378 39.2166 12.4969 39.452 12.6195C39.9594 12.8843 36.1041 14.9308 32.3104 16.4102C30.6672 17.0508 29.8651 17.215 30.0967 16.8633C30.4693 16.2973 36.2445 13.2739 38.0283 12.7103ZM51.9956 6.3676C52.7972 6.2914 55.0502 6.5347 57.0017 6.9085C60.724 7.621 61.5171 7.4881 59.2911 6.5244C58.5625 6.2094 58.0971 5.8844 58.257 5.8024C58.9703 5.4365 62.4241 6.3441 64.3491 7.404C66.7869 8.7458 71.8137 10.3721 74.7935 10.7839C76.2287 10.9819 77.089 11.3386 77.6487 11.9666C78.0893 12.4607 79.5524 13.4811 80.9 14.2338C84.4433 16.2134 90.4462 20.3382 94.4217 23.5257C101.5105 29.2101 105.0649 33.0483 113.2983 43.9132C117.4635 49.4096 119.4027 52.5163 120.9157 56.1151C122.3962 59.6369 121.4226 58.5997 119.1537 54.239C117.0783 50.2494 113.6658 45.1196 110.885 41.8098C108.6493 39.1483 107.6089 38.2429 108.702 39.9099C109.7667 41.5329 108.4896 40.3362 105.6053 37.0081C98.5456 28.8625 93.7263 24.3412 88.092 20.5779C74.8205 11.7134 62.6278 7.2926 52.2961 7.6001C50.8539 7.6431 49.6617 7.5014 49.6465 7.2854C49.6105 6.7724 50.212 6.5374 51.9956 6.3676ZM26.6902 21.3582C26.5642 21.5556 26.27 21.7066 26.0364 21.6937C25.8026 21.6813 25.9059 21.52 26.2655 21.3355C26.6253 21.1517 26.8162 21.1621 26.6902 21.3582ZM69.273 4.0577C71.1375 4.6933 73.7213 5.5355 75.0161 5.9295C76.3107 6.3237 77.4526 6.6812 77.5532 6.7245C77.6545 6.7676 77.7057 7.0391 77.6678 7.3274C77.5797 7.9926 73.923 6.9242 71.9921 5.6688C71.2392 5.1795 70.1362 4.7935 69.5412 4.8104C68.5013 4.8409 65.7904 3.608 65.8528 3.1332C65.8699 3.0066 67.4086 3.4229 69.273 4.0577ZM65.4701 10.4978C67.7127 11.0419 71.4018 12.7212 71.7217 13.3444C71.8128 13.5224 70.4486 13.1095 68.6902 12.4271C62.3201 9.9547 61.6999 9.5831 65.4701 10.4978ZM12.7566 36.343C12.9182 36.9834 9.6312 47.5715 9.3222 47.406C8.8975 47.1789 9.1198 46.1905 10.6358 41.5666C12.6042 35.561 12.5766 35.6295 12.7566 36.343ZM76.7817 18.8527C83.1866 21.8798 84.8611 22.8721 84.7669 23.5843C84.7146 23.9825 83.6224 23.4379 78.636 20.5269C74.1123 17.886 73.4268 17.2672 76.7817 18.8527ZM89.7792 27.2013C93.5819 30.1649 99.068 35.2869 98.9988 35.8094C98.9804 35.9477 96.3979 33.872 93.2598 31.1965C90.1221 28.522 87.0401 25.8986 86.4117 25.3679C85.7837 24.8371 85.394 24.3385 85.5463 24.2604C85.6988 24.1822 87.6037 25.5058 89.7792 27.2013ZM110.2549 47.3963C110.8921 48.2435 112.0554 50.0039 112.8403 51.3078C113.6255 52.6116 114.6666 54.3332 115.154 55.1332C116.0149 56.5452 117.5453 60.0881 117.2196 59.9138C116.9499 59.7692 109.3639 46.9134 109.2258 46.3652C109.1548 46.0842 109.6182 46.5482 110.2549 47.3963ZM111.7054 51.7749C111.8541 51.8982 112.7858 53.4071 113.7758 55.1285C115.8698 58.7674 115.0587 58.1386 112.5686 54.1921C111.2171 52.0498 110.8722 51.0836 111.7054 51.7749ZM21.3169 111.2202C21.9981 111.96 23.1877 113.6592 23.9601 114.9958C24.733 116.3326 25.8432 118.2302 26.4272 119.2129C27.8833 121.6628 27.4417 121.2835 25.2442 118.1966C24.2306 116.7726 23.2506 115.5683 23.0665 115.5207C22.6819 115.42 19.6563 110.0891 19.9108 109.9604C20.0033 109.9135 20.6357 110.4804 21.3169 111.2202ZM119.3632 65.1455C119.7363 65.8723 119.8351 66.1973 119.5829 65.8673C119.3304 65.5376 119.025 64.9429 118.9043 64.5456C118.7835 64.1482 118.9899 64.418 119.3632 65.1455ZM22.8542 123.8947C25.3089 126.9767 29.8966 133.4861 29.5507 133.3962C28.5733 133.1413 20.693 122.4478 21.2666 122.1534C21.3451 122.1132 22.0593 122.8968 22.8542 123.8947ZM124.5293 80.9118C124.7427 81.3583 124.7265 81.4798 124.4886 81.2213C124.273 80.9873 124.1151 80.6564 124.1376 80.4864C124.16 80.3164 124.3361 80.5078 124.5293 80.9118ZM129.5116 91.2172C129.9783 92.1261 130.5556 98.1711 130.3148 99.6222C130.0702 101.0947 129.9938 101.2263 129.9211 100.3017C129.8712 99.6708 129.685 97.3499 129.5067 95.1439C129.2127 91.504 129.2138 90.6366 129.5116 91.2172ZM127.6079 105.9032C127.7096 113.0442 127.6128 114.8504 127.1138 115.1065C126.5945 115.3729 126.5927 115.3695 126.683 114.2534C126.7328 113.6369 126.8939 110.977 127.041 108.3422C127.1879 105.7067 127.3676 103.5204 127.4401 103.4831C127.5129 103.4458 127.5886 104.5349 127.6079 105.9032ZM64.0151 150.7696C69.0696 152.7827 70.7015 153.6041 69.5713 153.5677C68.8344 153.5441 58.7152 149.5646 58.5214 149.2221C58.1391 148.5469 59.1518 148.8324 64.0151 150.7696ZM126.4709 119.0983C125.8234 123.0098 124.5722 127.4211 123.4137 129.8814C122.5157 131.7876 122.4798 131.8209 122.7403 130.5009C123.2776 127.7807 126.4476 116.4036 126.6991 116.2917C126.84 116.2293 126.7371 117.4927 126.4709 119.0983ZM131.2359 117.644C131.2613 119.2187 130.9012 120.8006 130.4662 121.0236C130.14 121.1909 130.3779 118.8674 130.8446 117.3294C130.9668 116.9263 131.089 116.5232 131.2112 116.1201C131.2194 116.6281 131.2276 117.1361 131.2359 117.644ZM64.9584 157.2909C67.5043 158.3968 68.5132 159.0125 68.1152 159.2166C67.7401 159.4091 62.2576 157.177 62.0337 156.7404C61.6281 155.9498 62.0593 156.0313 64.9584 157.2909ZM66.3993 156.4819C67.6862 157.1067 68.3886 157.6143 68.1507 157.7473C67.7087 157.9955 64.1551 156.1668 64.2134 155.7216C64.2341 155.5664 65.2176 155.9085 66.3993 156.4819ZM132.1846 122.4669C132.0961 123.3343 131.9092 124.1022 131.77 124.1737C131.4272 124.3495 131.6164 122.3766 132.0213 121.5521C132.2531 121.0793 132.3 121.3412 132.1846 122.4669ZM71.7556 158.3039C72.0581 158.3825 72.2832 158.617 72.2555 158.8249C72.2284 159.0327 71.9667 159.0747 71.6745 158.9184C70.9863 158.55 71.0434 158.1183 71.7556 158.3039ZM89.7924 156.2393C93.9992 156.4729 96.8867 155.5599 103.346 151.9544C106.4565 150.2182 109.4219 148.4598 109.9369 148.0468C110.6696 147.4585 110.7868 147.4408 110.476 147.9639C110.2574 148.3316 108.8986 149.5952 107.4569 150.7721C102.5832 154.7471 95.08 157.1514 88.1598 156.9538C87.6529 156.9394 87.161 156.7781 87.0673 156.5958C86.8209 156.1153 87.0417 156.0866 89.7924 156.2393ZM89.2749 160.4607C90.9033 160.3051 91.4987 160.5854 90.5619 161.0665C89.8387 161.4373 87.565 161.4299 87.3732 161.0559C87.2252 160.7675 87.736 160.6076 89.2749 160.4607ZM128.8695 143.7567C128.8057 144.1993 126.3955 147.9327 126.0633 148.1031C125.6366 148.3223 126.1904 146.0941 126.7265 145.4382C127.8051 144.1198 128.9458 143.2244 128.8695 143.7567ZM86.6107 170.3376C88.9928 170.4541 90.9291 170.6381 90.915 170.7463C90.8898 170.9366 82.0919 170.7717 81.7119 170.5738C81.0676 170.2387 82.8419 170.1532 86.6107 170.3376ZM124.1219 151.2453C123.8278 151.7462 123.172 152.4964 122.6646 152.9128C122.0405 153.4249 122.1685 153.1459 123.0593 152.0521C124.5798 150.1856 124.877 149.9595 124.1219 151.2453ZM118.4147 157.4883C117.9325 158.1538 116.65 159.0498 115.01 159.8669C114.1328 160.3037 113.2556 160.7406 112.3783 161.1774C113.2472 160.6169 114.1162 160.0564 114.9851 159.4958C116.4187 158.5714 117.9505 157.5011 118.3898 157.1177C119.1781 156.4293 119.1786 156.4343 118.4147 157.4883Z"></path></svg> 