<?xml version="1.0" encoding="UTF-8"?> <svg xmlns="http://www.w3.org/2000/svg" width="85" height="85" viewBox="0 0 85 85" fill="none"><path d="M3.31173 34.583L9.07282 35.8653L8.9482 36.4251L6.25429 35.8255L5.49394 39.2416L8.18786 39.8412L8.06143 40.4092L2.30034 39.1269L2.42677 38.5589L4.99086 39.1296L5.7512 35.7135L3.18711 35.1428L3.31173 34.583Z" fill="#100E0F"></path><path d="M4.85224 28.5927L5.05168 28.1447L11.4409 28.3045L11.1908 28.8665L9.19382 28.8147L8.11545 31.2373L9.49377 32.6788L9.24023 33.2484L4.85224 28.5927ZM8.72204 28.7502L5.57301 28.6497L7.74846 30.9374L8.72204 28.7502Z" fill="#100E0F"></path><path d="M11.5755 26.0811L10.7196 22.3678L7.14513 22.179L7.5833 21.6568L10.8566 21.8425L11.3749 21.2248L9.36268 19.5363L9.73138 19.0969L11.7436 20.7855L12.2566 20.1742L11.5108 16.9764L11.9489 16.4543L12.7502 19.9481L16.5556 20.1463L16.1228 20.6621L12.6748 20.5034L12.1512 21.1274L14.2525 22.8908L13.8838 23.3302L11.7825 21.5668L11.2535 22.1972L12.0083 25.5653L11.5755 26.0811Z" fill="#100E0F"></path><path d="M21.4206 15.3567L18.6513 11.4303L19.0567 15.7117L18.7578 15.9225L14.8539 14.1086L17.6232 18.035L17.1477 18.3704L13.7459 13.5473L14.235 13.2023L18.4453 15.1766L18.012 10.5384L18.4943 10.1982L21.8961 15.0213L21.4206 15.3567Z" fill="#100E0F"></path><path d="M24.1527 12.8672L21.8942 7.41435L22.4241 7.19486L24.3772 11.9104L25.8034 5.79524L26.3026 5.58847L28.561 11.0413L28.0311 11.2608L26.113 6.62973L24.6903 12.6445L24.1527 12.8672Z" fill="#100E0F"></path><path d="M33.9931 3.59622L31.9368 4.03749L33.067 9.30427L32.498 9.42635L31.3678 4.15957L29.3115 4.60084L29.2034 4.09692L33.885 3.0923L33.9931 3.59622Z" fill="#100E0F"></path><path d="M40.9664 7.55793L40.9823 8.07308L37.019 8.19549L36.8368 2.29623L40.7253 2.17613L40.7412 2.69127L37.4343 2.79341L37.5 4.92047L40.3832 4.83142L40.3983 5.32164L37.5152 5.41069L37.5847 7.66238L40.9664 7.55793Z" fill="#100E0F"></path><path d="M43.2443 8.70148L43.4204 8.01117L43.2295 8.00158L43.2691 7.21286L43.817 7.24037L43.7774 8.02909L43.5348 8.71606L43.2443 8.70148Z" fill="#100E0F"></path><path d="M52.4505 9.45021L53.2811 7.04595C53.1478 7.05851 52.997 7.06213 52.8289 7.05679C52.6607 7.05145 52.4821 7.03373 52.2931 7.00362C52.106 6.96828 51.9103 6.91532 51.706 6.84474C51.0879 6.6312 50.6784 6.34018 50.4773 5.9717C50.2781 5.59797 50.2798 5.11778 50.4825 4.53112L51.1014 2.73971L51.6357 2.92431L51.0385 4.65286C50.8883 5.08762 50.8836 5.44071 51.0243 5.71215C51.1703 5.98539 51.4817 6.20435 51.9583 6.36904C52.2255 6.46134 52.4947 6.52211 52.766 6.55136C53.0426 6.58241 53.2713 6.58228 53.4522 6.55095L54.3778 3.8717L54.9121 4.05629L52.9848 9.6348L52.4505 9.45021Z" fill="#100E0F"></path><path d="M61.6618 7.54255L59.8278 6.51314L57.1912 11.2105L56.6838 10.9256L59.3204 6.22833L57.4864 5.19892L57.7387 4.74948L61.9141 7.09312L61.6618 7.54255Z" fill="#100E0F"></path><path d="M62.7508 14.452C62.4413 14.1745 62.2162 13.8611 62.0755 13.5116C61.9348 13.1622 61.868 12.8009 61.8751 12.4276C61.8859 12.0503 61.9602 11.6852 62.0979 11.3323C62.2393 10.9753 62.4358 10.6565 62.6874 10.3759C62.95 10.083 63.2513 9.85068 63.5912 9.67908C63.9348 9.50335 64.292 9.39556 64.6626 9.35571C65.0411 9.31544 65.4098 9.3483 65.7688 9.45429C66.1315 9.55616 66.4593 9.73843 66.7523 10.0011C67.0618 10.2785 67.285 10.594 67.4221 10.9476C67.5591 11.3012 67.6202 11.6648 67.6052 12.0385C67.5944 12.4158 67.5201 12.7809 67.3824 13.1338C67.2447 13.4867 67.0519 13.8013 66.804 14.0778C66.5414 14.3708 66.2383 14.6051 65.8946 14.7808C65.5547 14.9524 65.1976 15.0602 64.8232 15.1042C64.4526 15.144 64.0878 15.111 63.7288 15.005C63.3698 14.899 63.0438 14.7147 62.7508 14.452ZM63.1206 10.7644C62.9061 11.0037 62.7381 11.2699 62.6167 11.563C62.4991 11.852 62.4348 12.1479 62.4238 12.4507C62.4166 12.7493 62.4657 13.039 62.5713 13.3198C62.6847 13.6001 62.8611 13.8475 63.1004 14.0621C63.3521 14.2877 63.6232 14.4378 63.9138 14.5122C64.2122 14.5862 64.5092 14.5994 64.8049 14.5518C65.1084 14.5039 65.3953 14.4039 65.6656 14.2518C65.936 14.0996 66.1729 13.9101 66.3763 13.6832C66.5909 13.4438 66.757 13.1797 66.8747 12.8907C66.9923 12.6017 67.0546 12.304 67.0614 11.9975C67.0724 11.6947 67.0232 11.405 66.9139 11.1284C66.8046 10.8518 66.6303 10.6062 66.391 10.3917C66.1434 10.1697 65.8723 10.0197 65.5776 9.94156C65.2871 9.86715 64.99 9.85392 64.6865 9.90187C64.3909 9.9494 64.1058 10.0474 63.8313 10.1958C63.561 10.3479 63.3241 10.5374 63.1206 10.7644Z" fill="#100E0F"></path><path d="M67.1763 18.0261L71.9109 14.5021L74.2735 17.6763L73.86 17.984L71.8449 15.2766L70.1978 16.5026L71.3592 18.063C71.7464 18.5831 71.9103 19.0587 71.8511 19.4896C71.7964 19.9172 71.5756 20.275 71.1888 20.5629C70.9354 20.7515 70.6629 20.868 70.3712 20.9124C70.0873 20.9579 69.8004 20.9158 69.5105 20.7862C69.2283 20.6577 68.9631 20.4267 68.715 20.0933L67.1763 18.0261ZM67.9372 18.1852L69.0887 19.7322C69.2806 19.9901 69.4812 20.1621 69.6903 20.2482C69.8995 20.3343 70.1039 20.3583 70.3036 20.3202C70.5077 20.2789 70.6897 20.1986 70.8498 20.0795C71.0098 19.9604 71.1356 19.8184 71.2271 19.6536C71.323 19.4855 71.3536 19.29 71.319 19.067C71.2921 18.8453 71.1728 18.5921 70.961 18.3076L69.8244 16.7805L67.9372 18.1852Z" fill="#100E0F"></path><path d="M71.522 22.9321L76.9578 20.633L77.1845 21.1689L75.0714 22.0627L75.6543 23.4408C75.8205 23.8338 75.8898 24.1896 75.8621 24.5082C75.8344 24.8268 75.7225 25.1028 75.5263 25.3362C75.3324 25.5746 75.0695 25.7641 74.7377 25.9044C74.4366 26.0317 74.1314 26.0856 73.8223 26.0659C73.5131 26.0463 73.2305 25.9402 72.9746 25.7476C72.7186 25.555 72.5097 25.2673 72.3477 24.8845L71.522 22.9321ZM72.2004 23.277L72.7703 24.6245C72.8977 24.9256 73.0564 25.1443 73.2464 25.2806C73.4415 25.4147 73.6482 25.4837 73.8665 25.4876C74.092 25.4945 74.3069 25.4548 74.5111 25.3684C74.7254 25.2778 74.9083 25.1553 75.0597 25.001C75.211 24.8467 75.304 24.654 75.3386 24.4227C75.3731 24.1915 75.3224 23.9151 75.1864 23.5935L74.6197 22.2537L72.2004 23.277ZM73.4779 27.5564L78.9061 25.2605L79.1295 25.7888L73.7013 28.0847L73.4779 27.5564Z" fill="#100E0F"></path><path d="M77.937 37.5244C77.6454 37.5594 77.3751 37.5165 77.1262 37.3956C76.8827 37.2742 76.6798 37.0948 76.5173 36.8575C76.3611 36.6251 76.2651 36.3604 76.2294 36.0632L75.8975 33.2983L81.7575 32.5948L82.0964 35.4175C82.1294 35.6926 82.0835 35.9382 81.9587 36.1541C81.8401 36.3748 81.6715 36.5514 81.453 36.6837C81.2406 36.8208 81.0106 36.9042 80.763 36.9339C80.4714 36.9689 80.1928 36.927 79.9274 36.8082C79.6619 36.6894 79.4528 36.5051 79.3001 36.2556C79.2413 36.6031 79.0887 36.8893 78.8422 37.1143C78.5964 37.3447 78.2946 37.4814 77.937 37.5244ZM77.9667 36.9347C78.1648 36.9109 78.3411 36.8451 78.4956 36.7373C78.6556 36.6288 78.7786 36.4912 78.8646 36.3246C78.9513 36.1635 78.9831 35.9866 78.96 35.794L78.6905 33.5491L76.4703 33.8156L76.7329 36.0028C76.7567 36.2009 76.8304 36.3734 76.9541 36.5204C77.0778 36.6675 77.2278 36.7778 77.4041 36.8516C77.5866 36.9301 77.7741 36.9578 77.9667 36.9347ZM81.3234 33.233L79.161 33.4926L79.4027 35.5065C79.4258 35.699 79.4958 35.8637 79.6127 36.0003C79.7351 36.1364 79.8841 36.2385 80.0597 36.3067C80.2354 36.3749 80.4167 36.3978 80.6038 36.3753C80.8019 36.3516 80.9758 36.2888 81.1254 36.1871C81.2806 36.0848 81.3991 35.9561 81.481 35.8012C81.5629 35.6462 81.5929 35.478 81.5711 35.2964L81.3234 33.233Z" fill="#100E0F"></path><path d="M76.9309 39.6277L82.8217 39.9918L82.7858 40.5726L80.164 40.4105L80.1091 41.2983L82.6058 43.4848L82.5643 44.1568L79.8471 41.7651L76.6647 43.9338L76.7088 43.2202L79.5771 41.282L79.633 40.3777L76.895 40.2084L76.9309 39.6277Z" fill="#100E0F"></path><path d="M75.8643 49.9328L81.0358 51.4399L81.7103 49.1255L80.5225 48.7447C79.7481 48.4902 79.1153 48.2451 78.624 48.0096C78.1327 47.7741 77.7606 47.5357 77.5076 47.2946C77.26 47.055 77.1049 46.8049 77.0423 46.5442C76.985 46.2851 77.0014 46.0012 77.0913 45.6926L77.5861 45.8369C77.5257 46.0444 77.5254 46.2434 77.5853 46.434C77.6452 46.6247 77.7918 46.8146 78.0253 47.0039C78.2588 47.1931 78.6003 47.3879 79.0499 47.5882C79.5033 47.7954 80.0886 48.0151 80.806 48.2472L82.3563 48.751L81.3701 52.1348L75.7038 50.4834L75.8643 49.9328Z" fill="#100E0F"></path><path d="M72.8596 58.044C73.1273 57.6232 73.4597 57.3125 73.8566 57.1118C74.2583 56.9141 74.6946 56.8272 75.1655 56.851C75.6335 56.8794 76.1064 57.0292 76.5841 57.3003L77.2 56.3325L74.9206 54.8822L75.233 54.3912L80.2125 57.5596L79.9001 58.0505L77.6418 56.6136L77.026 57.5815C77.4774 57.9147 77.8113 58.2881 78.0277 58.7016C78.2411 59.1198 78.3387 59.5497 78.3204 59.9914C78.2992 60.4377 78.1621 60.8595 77.9093 61.257C77.6207 61.7105 77.2579 62.038 76.821 62.2395C76.3888 62.444 75.9223 62.5216 75.4216 62.4723C74.9209 62.423 74.4227 62.2407 73.9271 61.9254C73.3988 61.5892 73.0115 61.2016 72.7654 60.7626C72.5193 60.3235 72.4057 59.867 72.4248 59.3931C72.441 58.9239 72.5859 58.4741 72.8596 58.044ZM73.3014 58.3251C73.0694 58.6898 72.9589 59.0596 72.97 59.4345C72.9827 59.817 73.0996 60.1804 73.3207 60.5247C73.5388 60.8737 73.8488 61.176 74.251 61.4319C74.6764 61.7026 75.0926 61.859 75.4993 61.9011C75.9108 61.9461 76.2854 61.8889 76.6233 61.7295C76.9612 61.5701 77.2403 61.3174 77.4604 60.9714C77.6865 60.616 77.794 60.2509 77.7829 59.876C77.7736 59.5088 77.6583 59.153 77.4373 58.8088C77.2133 58.4692 76.8979 58.17 76.4911 57.9111C76.0703 57.6434 75.6571 57.4823 75.2517 57.4279C74.8432 57.3782 74.4692 57.4293 74.1296 57.581C73.7946 57.7358 73.5186 57.9838 73.3014 58.3251Z" fill="#100E0F"></path><path d="M68.2372 64.674L70.0746 66.4331C70.1189 66.3067 70.1786 66.1682 70.2537 66.0176C70.3288 65.867 70.4195 65.7122 70.5258 65.5531C70.6361 65.3978 70.7659 65.2421 70.9154 65.086C71.3676 64.6136 71.8031 64.3631 72.2219 64.3343C72.6447 64.3094 73.0802 64.5116 73.5286 64.9408L74.8977 66.2515L74.5068 66.6598L73.1857 65.3951C72.8535 65.077 72.5346 64.9253 72.2292 64.9398C71.92 64.9583 71.591 65.1497 71.2422 65.5139C71.0468 65.7181 70.8791 65.9373 70.7392 66.1716C70.5954 66.41 70.5 66.6178 70.4529 66.7952L72.5005 68.7555L72.1096 69.1638L67.8463 65.0824L68.2372 64.674Z" fill="#100E0F"></path><path d="M66.4973 67.1903L69.7744 72.0989L69.2974 72.4174L66.4634 68.1724L66.2554 74.4483L65.806 74.7483L62.5289 69.8396L63.006 69.5212L65.7892 73.6901L66.0134 67.5133L66.4973 67.1903Z" fill="#100E0F"></path><path d="M58.6355 78.2306L60.5663 77.3969L58.431 72.4515L58.9652 72.2208L61.1005 77.1662L63.0314 76.3325L63.2357 76.8057L58.8398 78.7038L58.6355 78.2306Z" fill="#100E0F"></path><path d="M54.8053 74.3208L56.1314 80.072L55.5644 80.2027L55.0489 77.967L53.5909 78.3032C53.1751 78.3991 52.8126 78.4059 52.5036 78.3236C52.1946 78.2413 51.9421 78.0834 51.746 77.85C51.5446 77.6177 51.4034 77.3261 51.3225 76.9751C51.249 76.6565 51.2487 76.3466 51.3214 76.0455C51.3942 75.7443 51.5475 75.4843 51.7814 75.2655C52.0153 75.0466 52.3347 74.8905 52.7397 74.7971L54.8053 74.3208ZM54.3485 74.9295L52.9228 75.2582C52.6042 75.3317 52.3614 75.4502 52.1944 75.6138C52.0286 75.7829 51.925 75.9746 51.8834 76.1889C51.8377 76.4099 51.8397 76.6283 51.8895 76.8444C51.9418 77.0712 52.0309 77.2724 52.1567 77.4482C52.2825 77.6239 52.4564 77.7487 52.6782 77.8227C52.9 77.8967 53.181 77.8944 53.5212 77.816L54.9387 77.4891L54.3485 74.9295Z" fill="#100E0F"></path><path d="M40.6654 76.2362L40.1111 81.0089L42.6638 77.5478L43.0271 77.59L44.7269 81.545L45.2812 76.7723L45.8592 76.8394L45.1783 82.7021L44.5838 82.633L42.7626 78.3543L39.9927 82.0998L39.4065 82.0317L40.0874 76.169L40.6654 76.2362Z" fill="#100E0F"></path><path d="M36.5475 75.9169L36.4049 76.3862L36.047 76.2774C35.925 76.2404 35.8244 76.2475 35.7451 76.2987C35.6606 76.3483 35.5602 76.4307 35.4441 76.546L35.0405 76.9881L36.1553 81.9836L35.5429 81.7975L34.6144 77.4755L31.7807 80.6546L31.2001 80.4782L35.0967 76.1451C35.2688 75.9599 35.4251 75.8365 35.5654 75.7749C35.7058 75.7133 35.8767 75.7131 36.0782 75.7743L36.5475 75.9169Z" fill="#100E0F"></path><path d="M30.1232 73.9085C30.4865 74.0866 30.7745 74.3236 30.9875 74.6194C31.198 74.9201 31.317 75.2501 31.3445 75.6092L30.8207 75.6579C30.8037 75.3779 30.7175 75.1258 30.5621 74.9014C30.4067 74.6771 30.1897 74.4966 29.9111 74.3599C29.5329 74.1745 29.1868 74.1251 28.8727 74.2118C28.5512 74.301 28.3099 74.5098 28.1488 74.8382C28.0463 75.0471 28.0033 75.2544 28.0198 75.46C28.0288 75.6681 28.0959 75.8584 28.2212 76.031C28.3464 76.2035 28.5285 76.3483 28.7673 76.4655L29.2748 76.7144L29.0698 77.1323L28.5548 76.8798C28.3707 76.7895 28.1883 76.7525 28.0075 76.7687C27.8243 76.79 27.6574 76.8532 27.5071 76.9584C27.3567 77.0637 27.2376 77.2059 27.1497 77.385C27.0545 77.579 27.0164 77.7702 27.0351 77.9584C27.049 78.1442 27.1147 78.3184 27.2325 78.4811C27.3452 78.6413 27.5061 78.7727 27.7151 78.8752C27.9688 78.9996 28.2208 79.0522 28.471 79.033C28.7212 79.0137 28.9535 78.9301 29.168 78.7823L29.4242 79.2227C29.1357 79.4207 28.8268 79.5346 28.4974 79.5644C28.163 79.5917 27.8167 79.5176 27.4584 79.3419C27.1549 79.193 26.9205 79.004 26.7551 78.7747C26.5824 78.548 26.4826 78.2985 26.4557 78.026C26.4214 77.7562 26.4726 77.4819 26.6093 77.2033C26.741 76.9346 26.9278 76.7237 27.1695 76.5707C27.4038 76.4202 27.6722 76.3512 27.9746 76.3637C27.7027 76.1254 27.5419 75.8429 27.4923 75.5161C27.4377 75.1869 27.4897 74.8606 27.6484 74.5371C27.7997 74.2287 28.0049 73.9991 28.2639 73.8484C28.5206 73.7026 28.81 73.6347 29.1323 73.6447C29.4496 73.6522 29.7799 73.7401 30.1232 73.9085Z" fill="#100E0F"></path><path d="M25.6778 72.4332L21.8839 76.9544L21.4382 76.5803L22.913 74.8228L21.7668 73.861C21.4399 73.5867 21.2163 73.3014 21.0959 73.0051C20.9756 72.7088 20.9497 72.4121 21.0181 72.115C21.0823 71.8144 21.2301 71.5261 21.4617 71.2501C21.6719 70.9997 21.9191 70.8128 22.2033 70.6896C22.4876 70.5664 22.7875 70.5323 23.103 70.5873C23.4186 70.6423 23.7356 70.8034 24.054 71.0706L25.6778 72.4332ZM24.9168 72.4348L23.796 71.4944C23.5456 71.2842 23.3047 71.1617 23.0735 71.1269C22.8388 71.0962 22.6233 71.1289 22.4271 71.2247C22.2232 71.3212 22.0499 71.4544 21.9074 71.6242C21.7578 71.8025 21.6507 71.9948 21.5862 72.201C21.5216 72.4073 21.5265 72.6212 21.601 72.8429C21.6755 73.0645 21.8464 73.2875 22.1139 73.512L23.2282 74.4471L24.9168 72.4348ZM21.8316 69.2057L18.0431 73.7205L17.6037 73.3518L21.3922 68.837L21.8316 69.2057Z" fill="#100E0F"></path><path d="M19.4003 67.5393L14.8654 71.3166L14.4929 70.8695L16.5113 69.1883L15.942 68.5049L12.6255 68.6276L12.1946 68.1102L15.8123 67.9855L16.6391 64.2243L17.0966 64.7736L16.3402 68.1516L16.9201 68.8478L19.0279 67.0921L19.4003 67.5393Z" fill="#100E0F"></path><path d="M14.8874 62.3431L14.4606 62.5848L14.2763 62.2593C14.2135 62.1483 14.1358 62.0841 14.043 62.0665C13.9476 62.0442 13.818 62.0347 13.6544 62.0382L13.0573 62.0801L10.4209 66.4672L10.1055 65.9102L12.4126 62.1394L8.16832 62.4886L7.86935 61.9605L13.6792 61.5083C13.9316 61.4928 14.1298 61.5111 14.2739 61.5633C14.4181 61.6154 14.542 61.7331 14.6458 61.9163L14.8874 62.3431Z" fill="#100E0F"></path></svg> 